PathFileType	4	(X/Y/Z)	Patient4_TMGait_0pt8_01_right_11.trc.trc
DataRate	CameraRate	NumFrames	NumMarkers	Units	OrigDataRate	OrigDataStartFrame	OrigNumFrames
90.322580645161	90.322580645161	6	33	mm	90.322580645161	1	       141
Frame#	Time	Sacral			L.Shoulder			Chest			R.Shoulder			Neck			R.ASIS			L.ASIS			R.Thigh.Superior			R.Thigh.Lateral			R.Thigh.Inferior			R.Patella			L.Thigh.Superior			L.Thigh.Lateral			L.Thigh.Inferior			L.Patella			L.Shank.Superior			L.Shank.Lateral			L.Shank.Inferior			R.Shank.Superior			R.Shank.Lateral			R.Shank.Inferior			R.Heel			R.Midfoot.Superior			R.Midfoot.Lateral			R.Toe			L.Heel			L.Midfoot.Lateral			L.Midfoot.Superior			L.Toe			L.Elbow			L.Wrist			R.Elbow			R.Wrist			
		X1	Y1	Z1	X2	Y2	Z2	X3	Y3	Z3	X4	Y4	Z4	X5	Y5	Z5	X6	Y6	Z6	X7	Y7	Z7	X8	Y8	Z8	X9	Y9	Z9	X10	Y10	Z10	X11	Y11	Z11	X12	Y12	Z12	X13	Y13	Z13	X14	Y14	Z14	X15	Y15	Z15	X16	Y16	Z16	X17	Y17	Z17	X18	Y18	Z18	X19	Y19	Z19	X20	Y20	Z20	X21	Y21	Z21	X22	Y22	Z22	X23	Y23	Z23	X24	Y24	Z24	X25	Y25	Z25	X26	Y26	Z26	X27	Y27	Z27	X28	Y28	Z28	X29	Y29	Z29	X30	Y30	Z30	X31	Y31	Z31	X32	Y32	Z32	X33	Y33	Z33	

1	12.120000000000	850.602428060177	1016.853680482402	441.399033335295	1032.855966167659	1447.183539780949	279.148117729056	1132.161260721925	1371.993689916096	440.185132727078	1043.511156063096	1438.276677982883	615.058067533731	1013.066623778352	1502.092567852623	436.871354125405	1071.061994606714	948.522501453630	565.126803403941	1071.799258796975	968.717970080187	290.138068732388	1151.982114361154	779.486905289834	538.035590606034	1113.359690833831	660.752208635871	614.520525695476	1203.097250227868	619.370180764030	535.552291677578	1219.709821720054	504.170859985515	560.960741821048	1105.696765974480	749.910051223341	324.359302300304	1007.772013679767	638.531291288758	265.073956407538	1084.105723213558	556.670429335625	332.446768580967	1079.889329630580	488.362737585153	344.209848038719	1051.651640375222	416.973826974321	336.482335155478	958.148886310300	304.668971852547	290.220601774779	1005.785150089313	193.486295433950	362.780036404965	1136.694117188260	434.381169482629	568.499344054042	1007.398807962838	408.012377196614	619.750114930470	989.226364673038	297.073032807738	576.679524442894	790.055703403013	256.090213183649	531.484224713234	942.957951292301	175.237706601749	592.240005826950	830.958932435700	191.519146400497	613.118307121694	985.227962451830	53.757503921165	629.044044685591	872.713217504841	39.655005612531	409.431615446488	944.319907408862	36.614214707722	326.763151668196	1029.460884124198	96.716969155647	351.528007667916	1156.285898133773	40.745518370098	318.392741011870	1043.722181568877	1106.436417367806	132.169452065287	1224.366647589084	917.074500461792	142.361558000090	1000.417754199450	1082.371578552373	707.543477548378	1098.323321292919	839.144468024034	707.688952052160	
2	12.131071428571	848.769433714757	1016.984822854330	440.356585321380	1034.545634903285	1447.360908564805	278.821711667551	1131.966502620729	1371.694262757955	440.700574485934	1042.034671262114	1438.208518750575	614.735411790674	1013.423119707102	1502.227551394489	436.434136541334	1069.006594614791	949.452241977159	565.642960865400	1070.810613546792	968.687067609443	290.532037541393	1152.669298542525	783.901769390121	538.927941472982	1116.407759279368	664.113832420764	615.152950504573	1207.611403851428	625.002798496954	537.050727039639	1226.911726768285	510.899463616512	562.427410744152	1101.832423822080	748.694446334573	325.437910425230	1002.695430500971	638.685739531491	264.880963574755	1077.009068403457	555.777429164946	332.774320353558	1071.667802629199	487.792780593483	344.463362702547	1043.521279045890	416.742485760412	336.541546322020	949.834324186782	304.771568437161	290.004046536490	996.721630316140	193.416437208745	362.803373862814	1147.234870572830	438.111614939175	569.499933611493	1019.466770027578	405.631178058552	620.295012073486	1006.846408417406	294.191998549006	577.101698608906	810.270920640676	242.896733410588	531.300588124178	966.841631916893	171.717474607156	593.425341021093	854.298637782641	181.489022127466	613.445784266223	1015.325302471069	53.027136120918	630.618757158665	863.367984602013	39.747454533799	409.328445667752	935.000985032512	36.623710361829	326.711408418293	1020.157301895916	96.775119806949	351.445059810393	1146.970043706510	40.710294108938	318.336346277562	1051.500551080959	1108.379248436313	130.146770557101	1241.370445214381	930.273980033683	142.549520960163	990.771938122012	1083.588398745463	706.037271938493	1070.788977736111	836.220508078358	707.012794606926	
3	12.142142857143	846.963802770890	1017.101197033038	439.350923317267	1036.213765326299	1447.516596041858	278.532988768444	1131.790490640941	1371.364328621991	441.223230983094	1040.617363054472	1438.109678108332	614.444045160064	1013.795505362232	1502.330104084285	436.032349896718	1066.988843391520	950.340147972905	566.156962591537	1069.839085025025	968.639508918715	290.909398633445	1153.299676183218	788.198468090335	539.793837973158	1119.294402268884	667.339105589280	615.737536370135	1211.939379029303	630.458507058146	538.525695079165	1233.827913084484	517.454283390800	563.837237358461	1098.020353406232	747.476899975151	326.471295913401	997.677413039349	638.820906928120	264.701129589546	1070.014874466002	554.884548811278	333.093094915870	1063.579961047635	487.230907739446	344.710267472356	1035.510370281393	416.505056099011	336.610941861815	941.635518391188	304.863220445556	289.808061496466	987.789758542037	193.343881121913	362.838821532754	1157.512882883256	441.711606585404	570.465819731745	1031.432480590901	403.077885534397	620.963822408293	1024.335357083240	291.198305563895	577.628572490759	830.430160468783	229.610582261547	531.461550877100	990.617740469798	168.058949653869	594.681936235207	877.634959483266	171.380788190979	614.042679586340	1045.322954146542	52.252766094935	632.220016811407	854.149607737304	39.836721194240	409.230479151194	925.805909429975	36.634391229149	326.665651640238	1010.978769215957	96.829192455171	351.372838528321	1137.777458823444	40.676393145062	318.282592486806	1059.133595047579	1110.288549794467	128.208725999910	1257.992048593091	943.385592842914	142.802834848304	981.103813215042	1084.842086981287	704.572340415610	1043.725109184331	833.612408535169	706.369345779114	
4	12.153214285714	845.220244022511	1017.167697185159	438.425594250704	1037.842950095435	1447.611099294305	278.324363942115	1131.650929137377	1370.957282260910	441.769119880548	1039.313496422752	1437.938586934841	614.219167367495	1014.204443507922	1502.352829400091	435.705245006132	1065.053750765295	951.129599849135	566.671736394972	1068.884512172362	968.534963431548	291.265510012660	1153.787448948773	792.186658513562	540.620981593908	1121.809275072258	670.253598670271	616.263496698568	1215.809707054123	635.478557850359	539.951832600073	1240.114654086714	523.636738197828	565.131740561320	1094.268834292799	746.231532799369	327.421532994219	992.715500297372	638.910884931869	264.547225105242	1063.145283724197	553.976281486622	333.394358108177	1055.666888645075	486.669435889094	344.941878350657	1027.638471793724	416.248473426844	336.697338888407	933.562452980251	304.934186197776	289.647812349582	979.005555766621	193.261249297122	362.895579923419	1167.272700431139	445.046345569237	571.386842779940	1043.299638918912	400.151363498324	621.912372592203	1041.737156784578	287.995946310211	578.384818175676	850.815678195213	216.057116712302	532.322044073459	1014.462302573281	164.197336157385	596.108775320730	901.304434464913	161.108346024890	615.185753396178	1075.437803741520	51.561077257419	633.884115817790	845.065766370661	39.918267504371	409.143361933550	916.739080529469	36.645528948630	326.631492514991	1001.930177918843	96.874192428320	351.320237633236	1128.712305225383	40.644701985981	318.234314788610	1066.545565491531	1112.134359527858	126.442422008575	1273.946884344345	956.439689173479	143.211583348344	971.303321904927	1086.231220770566	703.189140427570	1017.396721664231	831.669090509973	705.795770995158	
5	12.164285714286	843.573954149224	1017.152351060797	437.618659746631	1039.416717352844	1447.607243275889	278.229293100031	1131.560973865078	1370.432717710365	442.351631899502	1038.164174473627	1437.660251136546	614.089474320850	1014.666673811896	1502.255078558045	435.484646088835	1063.243723256155	951.769669025286	567.190616334495	1067.943054312065	968.334313140180	291.599443010048	1154.056420267391	795.682460805508	541.402443801138	1123.764158751880	672.699143000138	616.728343527800	1218.973976567986	639.816177086180	541.302876718836	1245.470012211990	529.264987709307	566.256843286744	1090.577495818613	744.932798820570	328.258482550967	987.794958643957	638.933656311101	264.429090596034	1056.402396834658	553.037388639629	333.669920848937	1047.941421903404	486.097169284366	345.150851044598	1019.900687526450	415.961055416640	336.803976040623	925.601552704948	304.976816612093	289.533440509737	970.357227194310	193.160548507058	362.980519465891	1176.297302239180	448.001282934467	572.256848455950	1055.089389672105	396.698327058746	623.270123695414	1059.115405580873	284.528102861193	579.472007936399	871.736852012379	202.102073123802	534.160936167253	1038.573142069922	160.132249453378	597.797636714092	925.650379253103	150.635796805440	617.092548811530	1105.895155321718	51.128871662878	635.641812856674	836.099406997511	39.987560131105	409.072738162973	907.780857878723	36.655826051802	326.613249054589	992.991716335045	96.905518253318	351.294212230085	1119.754663541343	40.615419722540	318.194128860919	1073.689567443244	1113.889524875726	124.918075591277	1289.018898252823	969.469254100232	143.850120430194	961.274086032809	1087.855625133170	701.920065201020	991.988776755460	830.664671956420	705.324565255995	
6	12.175357142857	842.060958368658	1017.027426342125	436.961287237083	1040.918359070686	1447.472972519707	278.269167447023	1131.527783218179	1369.761005495857	442.979543105671	1037.194635319566	1437.249938308617	614.074405415908	1015.191978899505	1502.006234570951	435.392035653270	1061.598053597631	952.218281269088	567.716252457275	1067.008688089952	968.002725577692	291.914838784055	1154.045976676618	798.516769164056	542.137400985782	1125.007619726932	674.544270397699	617.141801840835	1221.222940488961	643.251270405974	542.552789790085	1249.653059946602	534.181599959238	567.168307073272	1086.942483162885	743.559333098473	328.963225952313	982.897465427283	638.872964243972	264.353017137708	1049.777063746195	552.055119274637	333.913049126811	1040.397291925260	485.500875594402	345.331308689769	1012.278353161728	415.634003543695	336.929567504892	917.726864017049	304.986626673655	289.468654367947	961.816801711077	193.034189609944	363.096466212666	1184.414105755580	450.488717490417	573.075404138464	1066.816135092159	392.637081843625	625.122838509685	1076.516892607463	280.792717658953	580.954926214685	893.466682659684	187.694704374138	537.140565471950	1063.107881144903	155.938787258976	599.815626694771	950.947084422302	140.004038736376	619.888490244158	1136.851626560631	51.172543207593	637.510654435459	827.220709404425	40.040626210292	409.023506164696	898.900203120511	36.663448137872	326.613351907690	984.131459822680	96.919399847947	351.298628029828	1110.873179187567	40.588146582958	318.164206535080	1080.541916114282	1115.529207126718	123.684677844370	1303.059099102865	982.485621944950	144.769800601884	950.963265013695	1089.804296552500	700.788928562511	967.626732868081	830.772113428514	704.980774829054	
